PathFileType	4	(X/Y/Z)	C:\Users\Biomechanik\SynologyDrive\AlexP\Athlete_03\Athlete_3_25_03_31\Walking_04\marker_experimental.trc
DataRate	CameraRate	NumFrames	NumMarkers	Units	OrigDataRate	OrigDataStartFrame	OrigNumFrames
200.000000	200.000000	4	53	mm	200.000000	115	463
Frame#	Time	GLAB			RFHD			LFHD			C7			T6			SPINMOL			SPINM2			SPINM3			T12			BELTOL			BELT2			BELT3			SACROL			SACR2			SACR3			LTHOL			LTH2			LTH3			LSHAOL			LSHA2			LSHA3			LHEE			LTOE			LM5			RTH2			RSHAOL			RSHA2			RSHA3			RHEE			RTOE			RM5			STRN			XIPH			LACR			LUAOL			LUA2			LUA3			LLAOL			LLA2			LLA3			LWRR			LWRU			RACR			RUAOL			RUA2			RUA3			RLAOL			RLA2			RLA3			RWRR			RWRU			RTH3			RTHOL			
		X1	Y1	Z1	X2	Y2	Z2	X3	Y3	Z3	X4	Y4	Z4	X5	Y5	Z5	X6	Y6	Z6	X7	Y7	Z7	X8	Y8	Z8	X9	Y9	Z9	X10	Y10	Z10	X11	Y11	Z11	X12	Y12	Z12	X13	Y13	Z13	X14	Y14	Z14	X15	Y15	Z15	X16	Y16	Z16	X17	Y17	Z17	X18	Y18	Z18	X19	Y19	Z19	X20	Y20	Z20	X21	Y21	Z21	X22	Y22	Z22	X23	Y23	Z23	X24	Y24	Z24	X25	Y25	Z25	X26	Y26	Z26	X27	Y27	Z27	X28	Y28	Z28	X29	Y29	Z29	X30	Y30	Z30	X31	Y31	Z31	X32	Y32	Z32	X33	Y33	Z33	X34	Y34	Z34	X35	Y35	Z35	X36	Y36	Z36	X37	Y37	Z37	X38	Y38	Z38	X39	Y39	Z39	X40	Y40	Z40	X41	Y41	Z41	X42	Y42	Z42	X43	Y43	Z43	X44	Y44	Z44	X45	Y45	Z45	X46	Y46	Z46	X47	Y47	Z47	X48	Y48	Z48	X49	Y49	Z49	X50	Y50	Z50	X51	Y51	Z51	X52	Y52	Z52	X53	Y53	Z53	

116	0.5750000000000001	34.93511962890611	1563.15673828125	264.8811340332031	-15.79671764373795	1591.193969726562	327.9682312011719	-9.070263862609997	1581.513305664062	190.6709747314453	-190.4821777343751	1402.052001953125	261.8459777832031	-251.701385498047	1234.815185546875	258.8832397460937	-259.0213317871095	1194.2236328125	237.4955139160156	-267.4592285156251	1186.853881835938	286.7975769042968	-256.3945312500001	1130.11181640625	253.6416778564453	-232.2907867431642	1062.640014648438	254.9037322998046	-266.0907592773439	1026.092407226562	233.1011810302734	-270.6885375976564	1025.566040039062	283.5059814453124	-273.2395324707032	964.6661987304688	256.0529785156249	-250.9827728271485	919.6892700195312	227.4519500732421	-258.6087036132814	921.9446411132812	278.6347351074218	-274.8487854003907	862.8153076171875	252.8137512207031	-51.13545227050786	632.3557739257812	81.48108673095702	-72.44612121582036	563.2879638671875	114.0073318481445	-26.24706649780279	578.4733276367188	95.9576416015625	88.98969268798825	305.9660034179688	86.1817092895508	75.98214721679685	229.3906402587891	102.6617202758789	119.2188491821289	251.8799591064453	90.97190856933597	159.0794067382812	48.52561187744141	171.8436584472657	365.4286804199218	127.9291305541992	165.9359436035157	338.8476257324219	81.7457962036133	73.35749816894537	-224.5557861328126	617.8302001953125	459.8629455566406	-390.7358093261719	362.9774780273438	422.8006591796874	-387.5404663085938	284.0814819335938	420.7116394042968	-425.3504028320313	314.0173034667969	406.7385559082031	-535.2492065429688	123.2093124389648	294.4978637695311	-344.1170349121094	43.61539077758787	305.6827392578124	-396.5794982910157	39.61104202270506	409.1175842285156	-21.14692687988294	1296.071899414062	265.3015747070312	-9.108070373535277	1152.056762695312	272.0010986328125	-112.5770263671876	1357.669799804688	87.5023727416992	-151.5047454833985	1205.274169921875	-11.32154083251956	-178.475570678711	1146.951293945312	-27.91599464416507	-129.5666046142579	1143.356201171875	-14.49621105194094	-193.0561828613282	950.1162719726562	-63.48715209960941	-243.645980834961	893.0989379882812	-42.16522216796879	-201.6987609863282	889.399658203125	-68.8635635375977	-207.0065460205078	786.2689819335938	-82.35979461669926	-153.7259216308594	769.9332275390625	-27.43340682983401	-106.9431457519533	1361.472412109375	430.5324096679688	-105.4933319091799	1220.943969726562	536.1812133789062	-71.2486877441408	1165.380737304688	547.1624755859375	-118.6465759277345	1162.058837890625	561.6638793945312	-0.1632318943740606	966.8482055664062	586.30322265625	79.6199874877928	960.6216430664062	587.9010620117188	45.94029235839827	926.3006591796875	573.9789428710938	126.7675094604491	887.60302734375	559.5418090820312	148.234420776367	911.1563110351562	484.37255859375	-266.2179260253907	627.021240234375	433.9358825683593	-257.9470214843751	686.9718017578125	443.1567687988281	
117	0.58	42.0130462646483	1562.671752929688	263.5401306152344	-8.800671577453771	1590.647338867188	326.6100463867188	-1.894392728805674	1580.964477539062	189.2733917236328	-183.2368011474611	1401.33544921875	260.3674316406249	-244.3075103759767	1234.066162109375	257.6108703613281	-251.5963439941408	1193.39794921875	236.2972564697265	-259.9791259765626	1186.138061523438	285.6458740234374	-248.9178161621095	1129.330688476562	252.5295257568359	-224.6895751953126	1061.963745117188	253.867691040039	-258.4714660644532	1025.381958007812	231.9783325195312	-263.1372680664064	1024.771606445312	282.3163452148437	-265.639617919922	963.899169921875	254.8622436523437	-243.0617980957032	918.8695068359375	226.7541198730468	-250.8054046630861	921.2659301757812	277.9458312988281	-266.9378967285157	862.0678100585938	252.1805725097656	-41.4351310729981	632.754638671875	80.38510131835936	-61.18062973022467	563.0055541992188	111.0997009277344	-16.70529747009283	578.822265625	94.79138946533203	95.61543273925778	305.0472717285156	85.75087738037111	81.184700012207	228.6324920654297	101.687484741211	124.9165954589843	250.5583648681641	90.81396484375003	160.8323211669922	47.23963928222657	172.5869903564453	368.3710327148437	122.6410598754883	166.3352355957032	340.5228271484375	77.86697387695314	73.62975311279303	-217.3320617675782	617.2720947265625	459.5002441406249	-385.1949768066407	364.0460815429688	423.0419311523437	-383.0712585449219	285.1317749023438	420.7015991210937	-420.5165100097657	315.5368041992188	406.9875183105468	-532.9842529296875	126.6097106933593	295.1195983886718	-344.1245727539063	43.90521240234373	305.4790344238281	-395.8380432128907	39.97140121459959	409.2199707031249	-13.81518173217786	1295.504516601562	264.02783203125	-1.562456965446593	1151.53271484375	270.8827209472656	-105.088233947754	1356.862915039062	86.11659240722655	-143.806625366211	1204.217163085938	-12.49801254272464	-170.7692871093751	1145.88232421875	-28.96485519409183	-121.7929763793946	1142.3203125	-16.12271499633791	-185.6306915283204	949.0360717773438	-64.38957977294925	-236.3254394531251	892.2500610351562	-42.79944992065434	-194.2827148437501	888.3548583984375	-69.57124328613286	-199.9585571289063	785.4091796875	-83.01643371582036	-146.7678985595704	768.8965454101562	-27.95075607299808	-99.71725463867205	1360.98486328125	429.1397094726562	-98.65133666992205	1220.4580078125	534.729248046875	-64.33651733398455	1164.723999023438	545.6654663085938	-112.698066711426	1161.53857421875	560.69775390625	6.151847839355302	966.0595703125	584.9418334960938	85.77532958984358	960.0952758789062	586.76171875	52.23365402221663	926.2220458984375	572.7008666992188	133.045440673828	886.736572265625	558.4217529296875	154.6400604248045	910.2157592773438	483.2798767089844	-259.1497802734376	626.8252563476562	433.5725097656249	-250.6140747070314	686.4917602539062	442.7291564941406	
118	0.585	49.06346511840806	1562.203857421875	262.2141418457031	-1.794989824295201	1590.17529296875	325.1901550292969	5.243061542510855	1580.458740234375	187.8799743652344	-175.9541778564455	1400.672119140625	258.8144531249999	-236.8993072509767	1233.30224609375	256.3170776367187	-243.9974670410158	1192.598876953125	234.9889678955078	-252.4244079589845	1185.435913085938	284.3753051757812	-241.3625030517579	1128.611694335938	251.3819122314453	-216.930877685547	1061.29248046875	252.7322692871093	-250.745330810547	1024.662963867188	230.8259887695312	-255.4763793945314	1023.976257324219	281.1693420410156	-257.8240051269532	963.1631469726562	253.6235198974609	-234.9314422607423	918.1005249023438	225.9208984374999	-242.9438323974611	920.6671752929688	277.1975097656249	-258.8753356933595	861.4342041015625	251.4315490722656	-31.77138328552251	633.0593872070312	79.30584716796875	-52.25479507446295	563.430908203125	109.7397842407226	-7.124737262725882	579.080322265625	93.48827362060547	102.0490646362304	304.0999755859375	85.44125366210939	86.27245330810544	227.6366577148438	100.3879547119141	130.5710754394531	249.0028839111328	90.79492187500003	162.3261108398437	46.17173385620118	173.3540649414063	371.1524047851562	117.1162185668946	166.7496643066407	341.876953125	73.94266510009767	73.90138244628912	-209.8982849121095	616.8341064453125	459.1052551269531	-379.4667968750001	365.1211242675781	423.2675476074218	-378.3888854980469	286.212158203125	420.6872253417968	-415.4496154785157	317.1084289550781	407.1748352050781	-530.909423828125	130.4691009521484	295.7872009277343	-343.7740173339844	43.83984756469724	305.4368286132812	-395.0077209472657	40.34846115112303	409.3235473632812	-6.399570941925176	1295.10205078125	262.6901550292969	6.68999719619739	1151.404541015625	269.9101257324219	-97.61472320556651	1356.100708007812	84.70764923095702	-136.0765838623048	1203.236572265625	-13.71461963653567	-162.9988403320313	1144.92138671875	-30.15520286560061	-114.1805419921876	1141.392456054688	-16.37868881225588	-177.9934234619141	948.2962646484375	-65.13130950927737	-228.8377075195313	891.47412109375	-43.53639602661137	-186.8145751953126	887.4537353515625	-70.34291839599612	-192.6597290039063	784.5347290039062	-83.64229583740237	-139.5914001464844	767.9496459960938	-28.53466033935549	-92.54892730712908	1360.551025390625	427.7696533203125	-91.73374176025408	1219.985107421875	533.2702026367188	-57.66060638427751	1164.266845703125	544.2675170898438	-105.8716049194338	1161.090209960938	559.1248168945312	12.4131422042845	965.3583984375	583.5751953125	91.96316528320295	959.330078125	585.5592041015625	58.39475250244124	925.0346069335938	571.4631958007812	139.3302612304686	885.513671875	557.468505859375	160.9144744873045	909.12548828125	482.2373352050782	-251.6876220703126	626.3388671875	433.0832824707031	-243.0139007568361	685.9642333984375	442.1805114746093	
119	0.59	56.12231445312486	1561.8525390625	260.8316650390625	5.234906196594081	1589.74609375	323.7596130371094	12.50752449035632	1580.017700195312	186.3968811035156	-168.6942749023439	1400.024536132812	257.2359924316406	-229.4039764404298	1232.563232421875	254.9058380126953	-236.4792480468751	1191.85791015625	233.6588592529296	-244.9076080322267	1184.7021484375	283.0555725097656	-233.7781219482423	1127.866455078125	250.1145935058593	-209.1198883056642	1060.68017578125	251.5680084228515	-242.7092895507813	1023.883911132812	229.5954437255859	-247.6238708496095	1023.228881835938	280.0184936523437	-249.8812103271486	962.4319458007812	252.4201965332031	-226.9607849121095	917.5233154296875	225.0680389404297	-235.0088653564454	920.0748291015625	276.3125305175781	-250.6947631835939	860.7510375976562	250.6632690429687	-22.23430442810064	633.3894653320312	78.331787109375	-43.01928710937506	563.4146118164062	107.813720703125	2.313191175460763	579.1907958984375	92.40104675292969	108.3189926147461	303.08984375	85.18231201171876	91.01965332031247	226.8689727783203	99.34534454345705	135.6769256591796	247.8900604248047	90.75935363769534	164.1331024169922	45.94641113281251	173.9779510498047	374.0763549804687	111.4669036865235	167.1104888916016	343.4163208007812	69.79506683349611	73.96780395507818	-202.2507324218751	616.3659057617188	458.6508789062499	-373.4989318847657	366.2913818359375	423.4327392578124	-373.5060119628907	287.2937316894531	420.6788024902343	-410.2500000000001	318.8189086914062	407.3554382324218	-528.22998046875	134.1632995605468	296.2380981445311	-343.3732604980469	43.85572052001951	305.4278564453124	-394.6636657714844	41.04441833496092	409.6419372558593	1.008888244628779	1294.719360351562	261.3718872070312	14.45056152343738	1151.055297851562	268.7295227050781	-90.08000183105479	1355.41650390625	83.25015258789061	-128.1785583496095	1202.248413085938	-15.11799335479739	-155.1197662353516	1143.912353515625	-31.04406356811526	-106.2543487548829	1140.452880859375	-17.47703170776369	-170.302230834961	947.2437744140625	-65.77816009521487	-221.2491912841797	890.6105346679688	-44.27919006347661	-179.1983489990235	886.534912109375	-71.02500152587893	-185.1783447265625	783.5672607421875	-84.23667144775393	-132.3678741455079	766.9237060546875	-28.86651420593264	-85.33864593505876	1360.2509765625	426.3060607910156	-84.83891296386736	1219.614379882812	531.8463134765625	-51.03664398193376	1163.673583984375	543.0234375	-99.4553298950197	1160.77685546875	557.7118530273438	18.51613616943343	964.6657104492188	582.240234375	98.09587860107405	958.8960571289062	584.3280029296875	64.43035125732406	924.333740234375	570.219482421875	145.1928558349608	884.6848754882812	556.3646240234375	167.1173248291014	907.951171875	481.2265014648438	-243.8299102783204	625.612060546875	432.5762634277343	-235.3739776611329	685.5320434570312	441.6823120117187	
